<svg xmlns="http://www.w3.org/2000/svg" viewBox="0 0 170 40">
        <defs>
          <clipPath id="squareClip">
            <rect x="0" y="0" width="40" height="40" rx="15" />
          </clipPath>
        </defs>
        <g clip-path="url(#squareClip)">
          <rect x="0" y="0" width="40" height="40" fill="#5EB1EF" />
          <g transform="translate(20 20)">
            <g transform="scale(0.08)">
              <g transform="translate(-128 -128)">
                <path d="M227.31,73.37,182.63,28.68a16,16,0,0,0-22.63,0L36.69,152A15.86,15.86,0,0,0,32,163.31V208a16,16,0,0,0,16,16H92.69A15.86,15.86,0,0,0,104,219.31L227.31,96a16,16,0,0,0,0-22.63ZM192,108.68,147.31,64l24-24L216,84.68Z" fill="#113264"></path>
              </g>
            </g>
          </g>
        </g>
        <path fill="#5EB1EF" d="M49.99 29L46.75 29L46.75 13.16L51.96 13.16L56.38 25.09L56.50 25.09L60.82 13.16L65.78 13.16L65.78 29L62.50 29L62.71 16.66L62.45 16.66L57.65 29L54.77 29L50.04 16.66L49.78 16.66L49.99 29ZM70.87 29.34L70.87 29.34Q69.82 29.34 69 28.92Q68.18 28.50 67.73 27.70Q67.27 26.91 67.27 25.74L67.27 25.74Q67.27 24.70 67.67 24.01Q68.06 23.31 68.83 22.88Q69.60 22.45 70.73 22.16Q71.86 21.87 73.30 21.66L73.30 21.66Q74.06 21.54 74.56 21.43Q75.05 21.32 75.29 21.07Q75.53 20.82 75.53 20.34L75.53 20.34Q75.53 19.66 75.05 19.18Q74.57 18.70 73.54 18.70L73.54 18.70Q72.84 18.70 72.25 18.94Q71.66 19.18 71.24 19.66Q70.82 20.14 70.63 20.89L70.63 20.89L67.58 19.95Q67.87 18.97 68.41 18.25Q68.95 17.53 69.72 17.04Q70.49 16.54 71.47 16.30Q72.46 16.06 73.61 16.06L73.61 16.06Q75.46 16.06 76.62 16.65Q77.78 17.24 78.36 18.48Q78.94 19.71 78.94 21.66L78.94 21.66L78.94 23.82Q78.94 24.66 78.97 25.52Q79.01 26.38 79.07 27.26Q79.13 28.14 79.20 29L79.20 29L76.15 29Q76.06 28.40 75.97 27.62Q75.89 26.84 75.84 26.05L75.84 26.05L75.41 26.05Q75.07 26.96 74.45 27.70Q73.82 28.45 72.92 28.89Q72.02 29.34 70.87 29.34ZM72.34 26.84L72.34 26.84Q72.79 26.84 73.26 26.67Q73.73 26.50 74.17 26.20Q74.62 25.90 74.99 25.45Q75.36 24.99 75.60 24.42L75.60 24.42L75.55 22.40L76.10 22.52Q75.67 22.83 75.10 23.01Q74.52 23.19 73.91 23.29Q73.30 23.38 72.70 23.50Q72.10 23.62 71.63 23.82Q71.16 24.01 70.88 24.33Q70.61 24.66 70.61 25.23L70.61 25.23Q70.61 25.98 71.09 26.41Q71.57 26.84 72.34 26.84ZM84.24 29L80.76 29L80.76 22.90L80.76 16.40L83.62 16.40L83.64 20.70L84.10 20.70Q84.29 19.09 84.76 18.08Q85.22 17.07 86.06 16.59Q86.90 16.11 88.15 16.11L88.15 16.11Q88.37 16.11 88.62 16.12Q88.87 16.14 89.21 16.21L89.21 16.21L89.06 19.88Q88.70 19.71 88.27 19.64Q87.84 19.57 87.50 19.57L87.50 19.57Q86.57 19.57 85.90 20Q85.22 20.43 84.80 21.24Q84.38 22.04 84.24 23.19L84.24 23.19L84.24 29ZM93.38 29L89.98 29L89.98 11.84L93.38 11.84L93.38 21.37Q94.13 20.86 94.81 20.28Q95.50 19.69 96.06 19.04Q96.62 18.39 97.07 17.72Q97.51 17.05 97.82 16.40L97.82 16.40L101.78 16.40Q101.42 17.31 100.84 18.24Q100.25 19.16 99.44 19.94Q98.64 20.72 97.58 21.27Q96.53 21.82 95.26 22.02L95.26 22.02L95.26 22.42Q96.86 22.14 97.92 22.47Q98.98 22.81 99.66 23.54Q100.34 24.27 100.75 25.22Q101.16 26.17 101.50 27.13L101.50 27.13L102.05 29L98.28 29L97.97 27.82Q97.63 26.65 97.22 25.76Q96.82 24.87 96.16 24.38Q95.50 23.89 94.34 23.89L94.34 23.89L93.38 23.89L93.38 29ZM107.23 29.34L107.23 29.34Q105.02 29.34 103.91 27.84Q102.79 26.34 102.79 23.26L102.79 23.26L102.79 16.40L106.25 16.40L106.25 22.83Q106.25 24.68 106.80 25.58Q107.35 26.48 108.48 26.48L108.48 26.48Q109.15 26.48 109.66 26.14Q110.16 25.81 110.52 25.21Q110.88 24.61 111.06 23.79Q111.24 22.98 111.26 22.04L111.26 22.04L111.26 16.40L114.72 16.40L114.72 23.86L114.72 29L111.94 29L111.91 25.06L111.48 25.06Q111.12 26.55 110.58 27.50Q110.04 28.45 109.21 28.89Q108.38 29.34 107.23 29.34ZM121.73 29.34L121.73 29.34Q120.46 29.34 119.42 29.10Q118.39 28.86 117.65 28.40Q116.90 27.94 116.45 27.31Q115.99 26.67 115.85 25.88L115.85 25.88L118.49 24.80Q118.58 25.33 119.02 25.78Q119.45 26.24 120.18 26.52Q120.91 26.79 121.94 26.79L121.94 26.79Q123.05 26.79 123.65 26.47Q124.25 26.14 124.25 25.54L124.25 25.54Q124.25 25.09 123.91 24.82Q123.58 24.56 122.93 24.37Q122.28 24.18 121.37 24.01L121.37 24.01Q120.48 23.79 119.56 23.55Q118.63 23.31 117.85 22.88Q117.07 22.45 116.58 21.74Q116.09 21.03 116.09 19.93L116.09 19.93Q116.09 18.78 116.71 17.91Q117.34 17.05 118.54 16.56Q119.74 16.06 121.46 16.06L121.46 16.06Q123.02 16.06 124.20 16.48Q125.38 16.90 126.13 17.68Q126.89 18.46 127.15 19.54L127.15 19.54L124.34 20.48Q124.25 19.90 123.88 19.47Q123.50 19.04 122.89 18.82Q122.28 18.61 121.46 18.61L121.46 18.61Q120.43 18.61 119.87 18.94Q119.30 19.28 119.30 19.83L119.30 19.83Q119.30 20.29 119.68 20.58Q120.05 20.86 120.72 21.04Q121.39 21.22 122.30 21.42L122.30 21.42Q123.26 21.61 124.18 21.86Q125.09 22.11 125.82 22.52Q126.55 22.93 126.98 23.60Q127.42 24.27 127.42 25.33L127.42 25.33Q127.42 26.58 126.74 27.48Q126.07 28.38 124.80 28.86Q123.53 29.34 121.73 29.34ZM131.14 29L127.39 29L132.82 13.16L137.86 13.16L143.28 29L139.54 29L135.53 15.90L135.17 15.90L131.14 29ZM140.74 25.88L130.44 25.88L130.44 23.53L140.74 23.53L140.74 25.88ZM147.79 29L144.26 29L144.26 13.16L147.79 13.16L147.79 29Z"/>
      </svg>